<svg xmlns="http://www.w3.org/2000/svg" xmlns:xlink="http://www.w3.org/1999/xlink" width="500"
  zoomAndPan="magnify" viewBox="0 0 375 374.999991" height="500" preserveAspectRatio="xMidYMid meet"
  version="1.0">
  <defs>
    <g />
  </defs>
  <g fill="#1de9b6" fill-opacity="0.302">
    <g transform="translate(51.516925, 292.778547)">
      <g>
        <path
          d="M 110.136719 -32.644531 L 110.136719 -56.261719 L 30.785156 -88.640625 L 110.136719 -121.28125 L 110.136719 -145.167969 L 7.695312 -100.316406 L 7.695312 -77.492188 Z M 110.136719 -32.644531 " />
      </g>
    </g>
  </g>
  <g fill="#1de9b6" fill-opacity="0.302">
    <g transform="translate(169.339606, 292.778547)">
      <g>
        <path
          d="M 22.824219 5.308594 L 73.777344 -182.320312 L 50.953125 -182.320312 L 0 5.308594 Z M 22.824219 5.308594 " />
      </g>
    </g>
  </g>
  <g fill="#1de9b6" fill-opacity="0.302">
    <g transform="translate(243.111461, 292.778547)">
      <g>
        <path
          d="M 110.136719 -77.492188 L 110.136719 -100.316406 L 7.695312 -145.167969 L 7.695312 -121.28125 L 86.78125 -88.640625 L 7.695312 -56.261719 L 7.695312 -32.644531 Z M 110.136719 -77.492188 " />
      </g>
    </g>
  </g>
  <g fill="#1de9b6" fill-opacity="0.502">
    <g transform="translate(39.787539, 281.049157)">
      <g>
        <path
          d="M 110.136719 -32.644531 L 110.136719 -56.261719 L 30.785156 -88.640625 L 110.136719 -121.28125 L 110.136719 -145.167969 L 7.695312 -100.316406 L 7.695312 -77.492188 Z M 110.136719 -32.644531 " />
      </g>
    </g>
  </g>
  <g fill="#1de9b6" fill-opacity="0.502">
    <g transform="translate(157.610219, 281.049157)">
      <g>
        <path
          d="M 22.824219 5.308594 L 73.777344 -182.320312 L 50.953125 -182.320312 L 0 5.308594 Z M 22.824219 5.308594 " />
      </g>
    </g>
  </g>
  <g fill="#1de9b6" fill-opacity="0.502">
    <g transform="translate(231.382074, 281.049157)">
      <g>
        <path
          d="M 110.136719 -77.492188 L 110.136719 -100.316406 L 7.695312 -145.167969 L 7.695312 -121.28125 L 86.78125 -88.640625 L 7.695312 -56.261719 L 7.695312 -32.644531 Z M 110.136719 -77.492188 " />
      </g>
    </g>
  </g>
  <g fill="#ffffff" fill-opacity="1">
    <g transform="translate(28.058149, 269.319769)">
      <g>
        <path
          d="M 110.136719 -32.644531 L 110.136719 -56.261719 L 30.785156 -88.640625 L 110.136719 -121.28125 L 110.136719 -145.167969 L 7.695312 -100.316406 L 7.695312 -77.492188 Z M 110.136719 -32.644531 " />
      </g>
    </g>
  </g>
  <g fill="#ffffff" fill-opacity="1">
    <g transform="translate(145.88083, 269.319769)">
      <g>
        <path
          d="M 22.824219 5.308594 L 73.777344 -182.320312 L 50.953125 -182.320312 L 0 5.308594 Z M 22.824219 5.308594 " />
      </g>
    </g>
  </g>
  <g fill="#ffffff" fill-opacity="1">
    <g transform="translate(219.652685, 269.319769)">
      <g>
        <path
          d="M 110.136719 -77.492188 L 110.136719 -100.316406 L 7.695312 -145.167969 L 7.695312 -121.28125 L 86.78125 -88.640625 L 7.695312 -56.261719 L 7.695312 -32.644531 Z M 110.136719 -77.492188 " />
      </g>
    </g>
  </g>
</svg>