<svg xmlns="http://www.w3.org/2000/svg" xmlns:xlink="http://www.w3.org/1999/xlink" width="500"
  zoomAndPan="magnify" viewBox="0 0 375 374.999991" height="500" preserveAspectRatio="xMidYMid meet"
  version="1.0">
  <defs>
    <g />
  </defs>
  <g fill="#ffffff" fill-opacity="1">
    <g transform="translate(107.384557, 202.717151)">
      <g>
        <path
          d="M 74.820312 0 L 57.273438 -38.425781 C 65.25 -41.035156 74.09375 -49.445312 74.09375 -66.117188 C 74.09375 -83.953125 62.347656 -96.714844 44.660156 -96.714844 L 8.554688 -96.714844 L 8.554688 0 L 27.984375 0 L 27.984375 -35.089844 L 38.425781 -35.089844 L 53.214844 0 Z M 54.230469 -65.828125 C 54.230469 -57.5625 49.300781 -51.910156 41.757812 -51.910156 L 27.984375 -51.910156 L 27.984375 -79.75 L 41.757812 -79.75 C 49.300781 -79.75 54.230469 -74.382812 54.230469 -65.828125 Z M 54.230469 -65.828125 " />
      </g>
    </g>
  </g>
  <g fill="#ffffff" fill-opacity="1">
    <g transform="translate(193.693557, 202.717151)">
      <g>
        <path
          d="M 51.910156 0 L 80.617188 -96.714844 L 59.449219 -96.714844 L 40.164062 -22.910156 L 20.734375 -96.714844 L -0.289062 -96.714844 L 28.417969 0 Z M 51.910156 0 " />
      </g>
    </g>
  </g>
  <g fill="#1de9b6" fill-opacity="0.302">
    <g transform="translate(129.750656, 301.828566)">
      <g>
        <path
          d="M 48.453125 -14.359375 L 48.453125 -24.753906 L 13.542969 -38.996094 L 48.453125 -53.359375 L 48.453125 -63.867188 L 3.386719 -44.136719 L 3.386719 -34.09375 Z M 48.453125 -14.359375 " />
      </g>
    </g>
  </g>
  <g fill="#1de9b6" fill-opacity="0.302">
    <g transform="translate(181.587241, 301.828566)">
      <g>
        <path
          d="M 10.042969 2.335938 L 32.457031 -80.214844 L 22.417969 -80.214844 L 0 2.335938 Z M 10.042969 2.335938 " />
      </g>
    </g>
  </g>
  <g fill="#1de9b6" fill-opacity="0.302">
    <g transform="translate(214.043479, 301.828566)">
      <g>
        <path
          d="M 48.453125 -34.09375 L 48.453125 -44.136719 L 3.386719 -63.867188 L 3.386719 -53.359375 L 38.179688 -38.996094 L 3.386719 -24.753906 L 3.386719 -14.359375 Z M 48.453125 -34.09375 " />
      </g>
    </g>
  </g>
  <g fill="#1de9b6" fill-opacity="0.502">
    <g transform="translate(124.59026, 296.668171)">
      <g>
        <path
          d="M 48.453125 -14.359375 L 48.453125 -24.753906 L 13.542969 -38.996094 L 48.453125 -53.359375 L 48.453125 -63.867188 L 3.386719 -44.136719 L 3.386719 -34.09375 Z M 48.453125 -14.359375 " />
      </g>
    </g>
  </g>
  <g fill="#1de9b6" fill-opacity="0.502">
    <g transform="translate(176.426845, 296.668171)">
      <g>
        <path
          d="M 10.042969 2.335938 L 32.457031 -80.214844 L 22.417969 -80.214844 L 0 2.335938 Z M 10.042969 2.335938 " />
      </g>
    </g>
  </g>
  <g fill="#1de9b6" fill-opacity="0.502">
    <g transform="translate(208.883083, 296.668171)">
      <g>
        <path
          d="M 48.453125 -34.09375 L 48.453125 -44.136719 L 3.386719 -63.867188 L 3.386719 -53.359375 L 38.179688 -38.996094 L 3.386719 -24.753906 L 3.386719 -14.359375 Z M 48.453125 -34.09375 " />
      </g>
    </g>
  </g>
  <g fill="#ffffff" fill-opacity="1">
    <g transform="translate(119.429865, 291.507775)">
      <g>
        <path
          d="M 48.453125 -14.359375 L 48.453125 -24.753906 L 13.542969 -38.996094 L 48.453125 -53.359375 L 48.453125 -63.867188 L 3.386719 -44.136719 L 3.386719 -34.09375 Z M 48.453125 -14.359375 " />
      </g>
    </g>
  </g>
  <g fill="#ffffff" fill-opacity="1">
    <g transform="translate(171.266449, 291.507775)">
      <g>
        <path
          d="M 10.042969 2.335938 L 32.457031 -80.214844 L 22.417969 -80.214844 L 0 2.335938 Z M 10.042969 2.335938 " />
      </g>
    </g>
  </g>
  <g fill="#ffffff" fill-opacity="1">
    <g transform="translate(203.722688, 291.507775)">
      <g>
        <path
          d="M 48.453125 -34.09375 L 48.453125 -44.136719 L 3.386719 -63.867188 L 3.386719 -53.359375 L 38.179688 -38.996094 L 3.386719 -24.753906 L 3.386719 -14.359375 Z M 48.453125 -34.09375 " />
      </g>
    </g>
  </g>
</svg>